<?xml version="1.0" encoding="UTF-8"?>
<!DOCTYPE svg PUBLIC "-//W3C//DTD SVG 1.1//EN" "http://www.w3.org/Graphics/SVG/1.1/DTD/svg11.dtd">
<!-- Creator: CorelDRAW 2018 (64-Bit) -->
<svg xmlns="http://www.w3.org/2000/svg" xml:space="preserve" width="659.024mm" height="374.189mm" version="1.1" style="shape-rendering:geometricPrecision; text-rendering:geometricPrecision; image-rendering:optimizeQuality; fill-rule:evenodd; clip-rule:evenodd"
viewBox="0 0 65659.94 37281.21"
 xmlns:xlink="http://www.w3.org/1999/xlink">
 <defs>
  <style type="text/css">
   <![CDATA[
    .fil3 {fill:#1B81A5}
    .fil4 {fill:#1D91B4}
    .fil1 {fill:#22A0C8}
    .fil5 {fill:#23A3C2}
    .fil6 {fill:#34BBDE}
    .fil0 {fill:#364548}
    .fil2 {fill:#37B1D9}
    .fil8 {fill:#BDD9D7}
    .fil7 {fill:#D3ECEC}
   ]]>
  </style>
 </defs>
 <g id="Слой_x0020_1">
  <metadata id="CorelCorpID_0Corel-Layer"/>
  <g id="_1589723419248">
   <path class="fil0" d="M37968.04 11772.85l5886.43 0 0 6017.46 2976.16 0c1374.68,0 2788.24,-244.82 4089.81,-685.8 639.72,-217.02 1357.44,-518.72 1988.4,-898.43 -830.99,-1084.81 -1255.23,-2454.6 -1379.83,-3804.84 -169.9,-1836.78 200.8,-4227.28 1443.68,-5664.78l618.86 -715.66 737.29 592.86c1856.33,1491.3 3417.66,3575.46 3692.85,5951.3 2235.27,-657.48 4859.79,-502 6829.91,635.08l808.33 466.47 -425.28 830.47c-1666.35,3251.87 -5150.17,4259.46 -8555.99,4081.06 -5096.37,12693.69 -16191.92,18703.16 -29645.02,18703.16 -6950.65,0 -13327.22,-2598.25 -16958.55,-8764.77l-59.47 -100.4 -529.03 -1076.57c-1227.44,-2714.35 -1635.2,-5687.94 -1358.72,-8659.22l83.15 -889.94 5033.82 0 0 -6017.46 5886.16 0 0 -5886.43 11773.12 0 0 -5886.42 7063.91 0 0 11772.85z"/>
   <g>
    <path class="fil1" d="M57039.08 13999.12c394.64,-3067.55 -1900.87,-5476.85 -3324.47,-6620.88 -1640.61,1896.75 -1895.47,6867.76 678.33,8960.68 -1436.46,1275.83 -4463.09,2432.21 -7562.3,2432.21l-37725.29 0c-301.2,3235.14 266.7,6214.4 1563.89,8764.25l429.14 785.17c269.84,459.82 570.13,907.59 889.96,1334.02 1551.02,99.62 2981.06,133.87 4289.32,105.03l-0.01 0.5c2570.96,-56.63 4668.78,-360.41 6258.67,-911.3 43.5,-13.5 89.05,-20.47 134.65,-20.47 250.33,0 453.34,203.01 453.34,453.34 0,187.79 -115.84,356.2 -291.17,423.34 -211.61,73.63 -431.97,142.11 -659.54,207.23l-0.77 0.01c-1251.89,357.57 -2594.4,598.01 -4326.39,704.85 102.97,1.8 -107.09,15.44 -107.6,15.44 -58.95,3.87 -133.09,12.35 -192.3,15.44 -681.68,38.36 -1417.42,46.34 -2169.63,46.34 -822.75,0 -1632.89,-15.44 -2538.78,-61.78l-23.16 15.44c3143.24,3532.99 8058.12,5651.91 14218.96,5651.91 13038.38,0 24097.64,-5779.85 28995.01,-18755.68 3474.3,356.54 6813.44,-529.53 8332.29,-3494.63 -2419.34,-1396.05 -5530.65,-950.95 -7322.12,-50.45l-0.03 0.01zm0 0l0 0 0 0z"/>
   </g>
   <g>
    <path class="fil2" d="M57039.08 13999.12c394.64,-3067.55 -1900.87,-5476.85 -3324.47,-6620.88 -1640.61,1896.75 -1895.47,6867.76 678.33,8960.68 -1436.46,1275.83 -4463.09,2432.21 -7562.3,2432.21l-35491.3 0c-153.94,4954.52 1684.63,8715.34 4937.53,10988.97l0.78 0c2570.96,-56.63 4668.78,-360.41 6258.67,-911.3 43.5,-13.5 89.05,-20.47 134.65,-20.47 250.33,0 453.34,203.01 453.34,453.34 0,187.79 -115.84,356.2 -291.17,423.34 -211.61,73.63 -431.97,142.11 -659.54,207.23l-0.77 0.01c-1251.89,357.57 -2709.72,628.91 -4441.73,735.74 -0.52,0 -41.97,-39.9 -42.47,-39.9 4437.34,2276.21 10871.33,2267.97 18248.02,-565.58 8271.27,-3177.73 15968.21,-9231.49 21338.49,-16155.62 -80.83,36.55 -159.61,73.89 -236.07,112.24l0 0.01zm0 0l0 0 0 0z"/>
   </g>
   <path class="fil3" d="M9176.15 22701.84c234.26,1733.03 741.4,3355.62 1493.11,4833.53l429.14 785.17c270.09,458.48 569.83,908.96 889.08,1334.62 1551.28,99.62 2981.31,133.87 4289.84,105.03 2570.96,-56.63 4668.78,-360.41 6258.67,-911.3 43.85,-13.6 89.4,-20.57 135,-20.57 250.33,0 453.34,203.01 453.34,453.34 0,187.79 -115.84,356.2 -291.17,423.34 -211.61,73.63 -431.97,142.11 -659.54,207.23l-0.77 0.01c-1251.89,357.57 -2702,613.45 -4433.99,720.55 -59.47,3.61 -163.21,4.37 -223.2,7.72 -681.16,38.1 -1409.43,61.52 -2161.91,61.52 -822.49,0 -1663.78,-15.7 -2569.16,-61.78 3143.24,3532.99 8088.5,5659.63 14249.34,5659.63 11162.22,0 20873.57,-4236.8 26510.03,-13598.04l-44367.79 0.01z"/>
   <path class="fil4" d="M11678.9 22701.84c667.27,3042.84 2270.8,5431.55 4598.76,7058.25 2570.96,-56.63 4668.78,-360.41 6258.67,-911.3 43.5,-13.5 89.05,-20.47 134.65,-20.47 250.33,0 453.34,203.01 453.34,453.34 0,187.79 -115.84,356.2 -291.17,423.34 -211.61,73.63 -431.97,142.11 -659.54,207.23l-0.77 0.01c-1251.89,357.57 -2732.64,613.45 -4464.89,720.55 4437.08,2275.7 10852.54,2243 18228.72,-590.29 4462.32,-1714.5 8757.05,-4266.67 12610.02,-7340.66l-36867.77 0.01z"/>
   <path class="fil5" d="M14225.66 12753.93l5101.78 0 0 5101.78 -5101.78 -0.01 0 -5101.77zm425.02 425.27l402.62 0 0 4251.48 -402.62 0 0 -4251.48zm756.84 0l418.84 0 0 4251.48 -418.58 0 0 -4251.48 -0.26 0zm772.82 0l418.84 0 0 4251.48 -418.84 0 0 -4251.48zm773.32 0l418.58 0 0 4251.48 -418.58 0 0 -4251.48zm773.06 0l418.58 0 0 4251.48 -418.58 0 0 -4251.48zm772.81 0l402.88 0 0 4251.48 -402.88 0 0 -4251.48zm1612.55 -6311.7l5102.03 0 0 5101.52 -5102.29 0 0 -5101.52 0.26 0zm425.28 425.28l402.36 0 0 4251.22 -402.36 0 0 -4251.22zm756.84 0l418.58 0 0 4251.22 -418.32 0 0 -4251.22 -0.26 0zm772.81 0l418.58 0 0 4251.22 -418.58 0 0 -4251.22zm773.06 0l418.58 0 0 4251.22 -418.58 0 0 -4251.22zm773.07 0l418.83 0 0 4251.22 -418.83 0 0 -4251.22zm772.81 0l403.14 0 0 4251.22 -403.14 0 0 -4251.22z"/>
   <path class="fil6" d="M20112.09 12753.93l5102.03 0 0 5101.78 -5102.29 -0.01 0 -5101.77 0.26 0zm425.28 425.27l402.36 0 0 4251.48 -402.36 0 0 -4251.48zm756.84 0l418.58 0 0 4251.48 -418.32 0 0 -4251.48 -0.26 0zm772.81 0l418.58 0 0 4251.48 -418.58 0 0 -4251.48zm773.06 0l418.58 0 0 4251.48 -418.58 0 0 -4251.48zm773.07 0l418.83 0 0 4251.48 -418.83 0 0 -4251.48zm772.81 0l403.14 0 0 4251.48 -403.14 0 0 -4251.48z"/>
   <path class="fil5" d="M25998.77 12753.93l5101.78 0 0 5101.78 -5101.78 -0.01 0 -5101.77zm425.02 425.27l402.36 0 0 4251.48 -402.36 0 0 -4251.48zm756.85 0l418.57 0 0 4251.48 -418.57 0 0 -4251.48zm773.06 0l418.58 0 0 4251.48 -418.58 0 0 -4251.48zm773.06 0l418.58 0 0 4251.48 -418.58 0 0 -4251.48zm772.81 0l419.1 0 0 4251.48 -419.1 0 0 -4251.48zm773.06 0l402.62 0 0 4251.48 -402.62 0 0 -4251.48z"/>
   <path class="fil6" d="M25998.77 6867.5l5101.78 0 0 5101.52 -5101.78 0 0 -5101.52zm425.02 425.28l402.36 0 0 4251.22 -402.36 0 0 -4251.22zm756.85 0l418.57 0 0 4251.22 -418.57 0 0 -4251.22zm773.06 0l418.58 0 0 4251.22 -418.58 0 0 -4251.22zm773.06 0l418.58 0 0 4251.22 -418.58 0 0 -4251.22zm772.81 0l419.1 0 0 4251.22 -419.1 0 0 -4251.22zm773.06 0l402.62 0 0 4251.22 -402.62 0 0 -4251.22zm1612.55 5461.15l5101.78 0 0 5101.78 -5101.78 -0.01 0 -5101.77zm425.28 425.27l402.36 0 0 4251.48 -402.36 0 0 -4251.48zm756.84 0l418.58 0 0 4251.48 -418.58 0 0 -4251.48zm772.81 0l418.58 0 0 4251.48 -418.58 0 0 -4251.48zm773.07 0l418.83 0 0 4251.48 -418.83 0 0 -4251.48zm773.06 0l418.83 0 0 4251.48 -418.83 0 0 -4251.48zm773.06 0l402.62 0 0 4251.48 -402.62 0 0 -4251.48z"/>
   <path class="fil5" d="M31885.2 6867.5l5101.78 0 0 5101.52 -5101.78 0 0 -5101.52zm425.28 425.28l402.36 0 0 4251.22 -402.36 0 0 -4251.22zm756.84 0l418.58 0 0 4251.22 -418.58 0 0 -4251.22zm772.81 0l418.58 0 0 4251.22 -418.58 0 0 -4251.22zm773.07 0l418.83 0 0 4251.22 -418.83 0 0 -4251.22zm773.06 0l418.83 0 0 4251.22 -418.83 0 0 -4251.22zm773.06 0l402.62 0 0 4251.22 -402.62 0 0 -4251.22z"/>
   <path class="fil6" d="M31885.2 980.81l5101.78 0 0 5102.3 -5101.78 0 0 -5102.3zm425.28 425.02l402.36 0 0 4251.74 -402.36 0 0 -4252 0 0.26zm756.84 0l418.58 0 0 4251.74 -418.58 0 0 -4252 0 0.26zm772.81 0l418.58 0 0 4251.74 -418.58 0 0 -4252 0 0.26zm773.07 0l418.83 0 0 4251.74 -418.83 0 0 -4252 0 0.26zm773.06 0l418.83 0 0 4251.74 -418.83 0 0 -4252 0 0.26zm773.06 0l402.62 0 0 4251.74 -402.62 0 0 -4252 0 0.26z"/>
   <path class="fil5" d="M37771.63 12753.93l5101.77 0 0 5101.78 -5101.77 -0.01 0 -5101.77zm424.76 425.27l402.87 0 0 4251.48 -402.62 0 0 -4251.48 -0.25 0zm756.84 0l418.84 0 0 4251.48 -418.58 0 0 -4251.48 -0.26 0zm773.32 0l418.84 0 0 4251.48 -418.84 0 0 -4251.48zm772.81 0l418.84 0 0 4251.48 -418.84 0 0 -4251.48zm773.32 0l418.58 0 0 4251.48 -418.58 0 0 -4251.48zm772.82 0l402.62 0 0 4251.48 -402.62 0 0 -4251.48z"/>
   <g>
    <path class="fil7" d="M24894.65 26127.22c6.08,0.05 12.6,-0.12 18.79,-0.12 777.28,0 1407.63,630.35 1407.63,1407.63 0,777.27 -630.35,1407.62 -1407.63,1407.62 -6.36,0 -13.06,-0.17 -19.25,-0.17 -769.55,-10.48 -1388.38,-637.74 -1388.38,-1407.45 0,-770.07 619,-1397.32 1388.9,-1407.46l-0.06 -0.05zm0 0l0 0 0 0z"/>
   </g>
   <g>
    <path class="fil0" d="M24894.65 26526.5c128.71,0 251.51,24.2 364.78,68.22 -126.73,73.58 -204.82,209.18 -204.82,355.78 0,226.75 183.51,410.77 410.26,411.37 155.74,0 290.9,-86.24 360.92,-213.93 50.68,122.36 77.02,253.89 77.02,386.41 0,556.51 -451.32,1007.84 -1007.85,1007.84 -556.52,0 -1007.85,-451.32 -1007.85,-1007.84 0,-556.41 451.2,-1007.73 1007.6,-1007.85l-0.06 0zm-24894.65 -3315.97l65471.75 0c-1425.4,-361.44 -4510.2,-850.04 -4001.51,-2718.48 -2592.34,2999.59 -8843.54,2104.5 -10421.34,625.56 -1756.71,2548.06 -11984.46,1579.34 -12697.8,-405.71 -2202.59,2584.87 -9027.35,2584.87 -11229.93,0 -713.85,1985.05 -10941.35,2953.77 -12698.32,405.45 -1577.54,1479.2 -7828.49,2374.29 -10420.82,-625.04 508.7,1868.18 -2576.11,2356.79 -4002.02,2718.48l0 -0.26zm0 0l0 0 0 0z"/>
   </g>
   <path class="fil8" d="M28635.9 36269.5c-3485.62,-1654 -5398.59,-3902.66 -6463.07,-6357.01 -1294.88,369.42 -2851.05,605.73 -4659.51,707.17 -681.16,38.1 -1397.86,57.67 -2149.55,57.67 -867.03,0 -1780.65,-25.74 -2739.84,-76.46 3196.52,3194.72 7128.79,5654.23 14409.98,5699.01 537.51,0 1070.91,-10.3 1601.99,-30.38z"/>
   <g>
    <path class="fil7" d="M23467.45 32177.38c-482.17,-654.65 -949.92,-1477.4 -1293.85,-2265.39 -1294.88,369.93 -2851.57,606.25 -4660.28,707.94 1242.36,674.21 3018.9,1299 5954.39,1557.46l-0.26 0zm0 0l0 0 0 0z"/>
   </g>
  </g>
 </g>
</svg>
