<?xml version="1.0" encoding="UTF-8"?>
<!DOCTYPE svg PUBLIC "-//W3C//DTD SVG 1.1//EN" "http://www.w3.org/Graphics/SVG/1.1/DTD/svg11.dtd">
<!-- Creator: CorelDRAW 2018 (64-Bit) -->
<svg xmlns="http://www.w3.org/2000/svg" xml:space="preserve" width="514.615mm" height="459.069mm" version="1.1" style="shape-rendering:geometricPrecision; text-rendering:geometricPrecision; image-rendering:optimizeQuality; fill-rule:evenodd; clip-rule:evenodd"
viewBox="0 0 51461.46 45906.9"
 xmlns:xlink="http://www.w3.org/1999/xlink">
 <defs>
  <style type="text/css">
   <![CDATA[
    .fil0 {fill:#F6BF13}
   ]]>
  </style>
 </defs>
 <g id="Слой_x0020_1">
  <metadata id="CorelCorpID_0Corel-Layer"/>
  <path class="fil0" d="M15378.36 40877.77c-1959.96,-1541.83 -4051.18,-3019.34 -5479.84,-5101.32 -3007.48,-3671.45 -5322.44,-7921.24 -6905.07,-12387.93 -956.86,-2904.76 -1284.53,-6018.78 -2518.8,-8810.75 -1289.35,-2028.51 222.13,-4244.36 2443.82,-4888.84 988.42,-190.57 2727.46,-1123.71 628.19,-455.92 -1882.36,1380.21 -2063.68,-1254.37 -133.88,-1421.22 1317.09,-174.69 1801.96,-1252.36 1351.06,-2222.49 -1414.39,-922.69 3428.42,-1935.03 991.44,-3311.42 -2536.89,-2737.91 3550.04,-3264.99 2048.01,-154.99 -359.02,2391.15 4254.82,-439.23 3183.37,2322.6 1088.53,1326.54 4075.1,302.54 4000.12,2162.39 1585.25,108.95 2129.42,1441.93 3615.97,1544.45 1543.24,696.74 4338.04,1244.72 4862.3,2982.55 -1529.77,1210.75 -5071.16,-2501.31 -5242.23,850.72 462.75,4952.76 344.75,10054.47 2156.15,14770.63 856.75,2855.31 2934.91,5102.93 4810.64,7327.22 1795.72,2177.86 4227.48,3712.06 6706.66,5002.82 2174.05,1025.21 4517.95,1704.66 6887.99,2132.03 960.88,-734.93 2657.7,-3467.62 4156.12,-2316.17 72.37,1296.39 -2974.31,2707.96 -142.93,2564.63 1664.05,-502.15 2816.91,1285.33 4186.47,-327.46 1262.01,1494.79 5244.65,-954.25 4347.09,2100.67 -1214.57,783.58 -2985.17,310.18 -4200.94,1388.25 -2004.58,-1001.69 -3600.69,895.15 -5820.77,655.93 -2464.52,441.44 -4972.87,619.15 -7471.35,622.76 -4100.03,-323.44 -8286.49,-459.94 -12186.71,-1887.59 -2197.77,-638.44 -4341.66,-1890 -6272.87,-3141.56l0 0.01zm3462.39 1501.23c2145.3,926.71 4243.36,1904.68 6594.9,2200.38 3730.55,518.03 7583.12,1317.09 11326.74,588.99 -1694.21,-764.89 -3446.51,297.11 -5134.29,-546.78 -2024.28,435.01 -4196.92,-111.77 -6255.78,-381.34 -2339.89,-1042.09 -4865.92,-1758.53 -7057.25,-3112.82 -2739.52,-1000.08 1415.79,1283.12 2155.75,1468.66 1711.5,970.93 -1882.56,-498.53 -2390.14,-901.98 -1433.68,-804.49 -1616.21,-636.23 -141.52,180.12 296.91,173.68 590.2,356.41 901.58,504.76l0 0.01zm-4082.74 -2885.26c2079.57,770.31 -9.25,-1461.83 -960.88,-1332.77 -422.14,-732.32 -1612.79,-1195.07 -772.93,-1588.07 -1510.27,524.67 -1582.64,-1994.13 -2292.25,-1633.7 -1598.52,-504.76 -621.96,-2292.65 -2526.64,-3391.23 -173.68,-1157.08 -1891.61,-2159.97 -2438.39,-3904.44 -241.83,-893.74 -1941.46,-3458.17 -897.76,-1071.44 888.51,2297.67 2451.46,4267.08 3752.87,6232.26 1009.53,1871.51 2203.19,3829.05 4042.14,4996.38 620.55,595.43 1218.39,1506.25 2093.64,1693l0.2 0.01zm-5988.63 -6576.4c71.97,-314.2 379.93,679.45 0,0zm8479.68 7499.09c459.94,-206.25 -662.57,-260.12 0,0zm1127.73 411.69c-116.79,-568.09 -515.22,318.02 0,0zm1413.18 588.99c671.61,-640.65 -1037.27,-404.05 0,0zm2421.3 1349.46c408.68,-603.26 -1308.05,-227.15 0,0zm-4649.22 -3241.07c1043.3,-675.83 -1350.06,-9.45 0,0zm1059.38 528.28c-30.35,-356.41 -377.32,160.21 0,0zm5295.91 3305.8c851.73,537.73 4972.87,1177.78 2392.56,220.72 -432.8,90.86 -4784.91,-1231.66 -2392.56,-220.72zm-8407.31 -6548.66c-82.82,-357.21 -1322.72,-395.61 0,0zm2464.52 1438.31c642.67,-448.28 -1331.57,-345.76 0,0zm2074.14 1271.05c921.48,-346.96 -1492.99,-348.37 0,0zm-5542.96 -3801.71c999.08,766.09 4030.48,98.5 1529.97,-457.32 -1136.98,-606.08 -3700.2,-1021.19 -1952.92,365.46l422.95 91.87 0 -0.01zm6948.49 4240.54c416.52,-708.6 -1745.87,-405.06 0,0zm-2111.32 -1677.52c2442.41,690.31 -2054.44,-1545.85 -603.06,-254.9l322.24 145.94 280.83 108.95 -0.01 0.01zm4233.1 2446.43c2313.35,22.11 -2090.22,-319.22 0,0zm-9959.99 -6347.85c-90.86,-430.99 -570.5,35.78 0,0zm13873.07 8542.99c61.71,-777.95 -754.63,579.75 0,0zm-9924.41 -6125.52c-140.71,-410.08 -722.87,-17.09 0,0zm-3729.35 -2688.06c1327.95,-80.01 -1819.24,-584.97 0,0zm-4418.04 -2855.3c-165.44,-637.24 -1444.54,-1144.62 0,0zm11597.91 7360.18c-243.24,-277.61 -114.58,60.31 0,0zm7217.66 4429.91c-22.11,-424.76 -393,160.01 0,0zm-7856.5 -5089.86c130.26,-546.78 -1132.96,-165.84 0,0zm-5377.73 -3408.52c988.62,-105.34 -1584.05,-667.79 0,0zm9096.61 5652.52c1540.43,-610.1 -1501.23,-297.31 0,0zm-4731.04 -3211.32c1774.42,228.36 -2112.33,-1208.14 -390.38,-129.06l390.38 129.06zm6167.34 3792.07c1657.82,-989.63 1111.04,2320.19 2812.09,280.02 1677.12,-1225.02 -1448.76,1514.29 617.74,218.31 1495.8,-1000.48 3704.02,474.41 5098.91,954.25 1002.69,-48.65 1978.25,867.61 3007.28,309.97 1979.66,-533.71 -3872.27,-791.02 -2338.48,-1736.42 -1811.2,527.48 -3149.2,-628.19 -4040.53,-1788.89 -2032.33,-469.38 -4381.26,-1507.66 -5396.02,-3307.2 -414.1,-674.23 597.03,96.09 -357.42,-1008.12 -1223.82,-1088.53 -1834.92,-2325.62 -2656.7,-3649.14 -981.99,-523.26 -1097.58,-2065.09 -1196.28,-51.06 8.04,-1271.26 -1185.62,-2127.01 -1477.51,-1772 -5.23,-1224.02 1277.89,-610.1 379.93,-1515.7 -192.98,-1268.65 -829.41,-2590.76 -1020.18,-4023.64 -296.71,-690.11 -42.21,-2168.82 -1014.55,-606.08 -353.8,1652.4 -116.99,-2029.51 433.8,-816.15 722.87,-1238.29 -260.52,-1092.55 -299.92,-921.48 470.79,-1044.91 298.52,-2527.84 -123.43,-1962.57 251.08,-1108.23 397.02,-4077.52 -374.5,-3550.44 467.78,-1159.29 887.31,-5302.94 -1145.22,-3722.51 -822.78,11.66 -2248.83,298.52 -2921.84,633.62 2112.33,1164.72 -213.08,420.54 -1074.06,235.19 -111.77,1077.88 -963.5,612.51 -2028.31,622.97 1701.04,210.27 -828.21,1738.83 -1801.96,1145.02 -1267.24,604.67 1092.35,2116.35 24.93,2584.13 131.67,703.37 -1940.26,-254.69 -1778.44,1372.57 -1229.25,-518.23 -168.25,1929.6 446.87,1101.6 2091.43,566.48 1472.28,1856.03 1524.75,3082.26 -340.53,713.63 -1682.55,-1678.53 -298.52,-1567.97 -1092.35,-1773.61 -1207.74,-641.66 -2114.95,182.53 -210.27,59.3 2313.55,1172.36 729.71,1721.95 1393.28,215.7 1434.09,1435.49 1718.13,2207.21 837.25,872.43 664.78,-963.9 1668.07,85.43 -635.23,-934.75 -3360.07,-2633.38 -1165.92,-2088.61 -12.06,-939.98 -397.22,-1698.63 275.8,-1680.34 666.59,-1205.32 -697.95,2973.51 803.28,1440.92 415.11,-181.32 519.24,-1206.73 1265.83,97.29 1084.31,1067.42 391.79,1839.95 -1138.38,862.18 273.39,929.32 2046.6,1260.4 1712.7,2713.18 353.4,1277.69 847.91,806.9 1278.9,733.33 337.72,1240.9 530.09,328.67 545.77,-262.94 1547.06,331.69 1184.22,1246.33 1669.08,1885.18 1066.02,480.84 -1525.95,-3261.37 303.94,-1125.32 1925.38,1739.04 722.87,2464.52 -1005.51,2186.11 1093.56,-88.45 1445.54,1478.91 2814.3,1423.63 1247.34,594.02 2092.63,2873.4 -57.89,1924.18 -745.39,-673.02 -3386.41,-1502.43 -1229.04,-223.33 1990.11,922.69 3572.75,1473.49 5493.11,2631.77 1373.78,980.58 1967.6,2104.09 2488.24,2326.62 -1155.27,551.8 -3480.48,-440.44 -1753.51,-743.98 -1077.88,-196 -2289.63,-741.37 -1257.99,600.65 878.06,733.53 3108.79,655.73 3509.83,738.55 -339.12,746.79 -921.28,806.1 13.07,863.79 -1042.5,556.02 335.3,642.87 431.19,959.47l-0.19 0.01zm-2132.03 -6021.59c-634.83,-663.77 -799.06,-1905.88 -112.97,-825.8 352.39,142.12 1126.72,2031.32 112.97,825.8zm6944.67 4411.41c395.61,-26.13 11.66,300.73 0,0zm-7945.96 -6038.68c-25.33,-1003.1 228.36,773.93 0,0zm-690.31 -928.12c-799.06,-1541.83 1005.51,436.42 0,0zm-8365.49 -5773.13c469.38,-125.24 231.38,801.47 0,0zm6658.02 3608.13c287.86,-1081.9 337.92,907.21 0,0zm-4703.3 -3270.61c-331.08,-596.63 692.92,560.25 0,0zm4035.5 1293.57c-755.84,-1693 536.32,-925.5 168.25,277.41l-168.25 -277.41zm-6960.15 -4641.58c-337.72,-555.82 -896.56,-2185.91 -716.44,-2683.84 161.62,810.92 1723.36,3488.52 764.89,1109.44 -1057.98,-1994.13 1266.03,646.48 1505.25,1144.82 111.77,494.31 -653.32,-135.29 -135.49,1025.21 -945,-1321.11 -557.43,729.71 -1418.21,-595.63zm-2150.52 -1482.54c88.05,-1292.17 491.7,885.9 0,0zm967.51 333.7c461.34,-974.95 781.97,1359.31 0,0zm-2328.03 -1800.55c-800.67,-796.85 -1380.41,-1530.17 37.99,-494.51 545.57,21.11 -1214.37,-1667.87 131.67,-536.32 1414.18,257.91 697.75,2320.39 -169.66,1030.84l0 -0.01zm1222.41 -31.56c465.57,-461.34 247.26,453.5 0,0zm753.23 240.42c-705.99,-1321.11 855.75,554.82 0,0zm-1495.8 -1428.66c-2327.83,-2073.33 2924.66,1082.9 379.93,383.55l-379.93 -383.55zm6670.88 3874.89c-1008.12,-603.47 -268.16,-4252.2 76.39,-1757.33 979.38,-317.01 -54.28,1289.55 675.43,1273.67 -114.18,1013.15 -441.44,1377.8 -751.82,483.66zm2467.34 1459.01c98.5,-1099.99 207.66,752.22 0,0zm-428.38 -424.55c110.36,-469.18 10.45,553.41 0,0zm-8253.92 -5590.41c-1495.6,-2063.89 4347.09,2087.2 958.47,523.26 -353.8,-93.27 -780.77,-126.24 -958.47,-523.26zm4751.94 2518.8c-141.72,-1737.83 315.6,287.46 0,0zm3606.93 2314.36c278.62,-989.63 21.31,654.93 0,0zm-8128.69 -5620.56c888.72,-190.57 3683.11,1560.33 1117.28,499.54 -285.05,-315.6 -893.74,-172.28 -1117.28,-499.74l0 0.2zm7632.97 3804.13c95.08,-1777.03 531.5,-1060.79 4.02,255.1l-4.02 -255.3 0 0.2zm-6971.81 -4423.07c362.64,-531.3 -962.49,-2401.6 190.37,-670.61 498.53,395.61 1441.93,662.57 608.69,829.41 1310.46,1155.67 -319.22,312.99 -799.06,-158.81l0 0.01zm6594.49 3868.45c250.07,-2024.28 221.12,1185.62 0,0zm-7351.74 -5737.75c277.41,-118.6 147.15,369.08 0,0zm1720.74 1024c442.65,-929.52 816.15,1035.66 0,0zm4851.65 2698.51c-4.02,-356.21 91.87,519.24 0,0zm-281.43 -621.55c-673.02,-1661.64 627.19,879.27 0,0zm-412.9 -1089.94c-112.57,-686.29 383.95,862.38 0,0zm673.02 -1093.56c-462.55,-813.94 583.97,-3588.63 700.96,-1867.89 -487.88,1340.81 -140.71,2090.22 198.21,291.88 628.59,-1414.39 -135.29,2793.39 -899.17,1576.01zm691.52 -4126.16c201.42,-247.26 44.83,298.11 0,0zm-1155.07 22757.6c-273.59,-239.22 35.18,151.37 0,0zm2379.08 1202.91c1323.52,340.53 1317.09,-205.24 120.61,-368.27 -642.67,-597.84 -2673.58,-1232.86 -855.55,-73.57 119.81,305.15 499.74,297.11 734.93,441.84l0.01 0zm-4697.86 -3120.85c728.1,544.57 2745.75,1540.63 1038.28,208.06 575.73,-669.4 -1101.6,-1025.41 -545.37,-1473.49 -1415.79,-866.6 -1117.68,-789.01 -124.83,-761.27 -1701.04,-761.27 245.65,-703.37 153.78,-1093.56 -655.93,-129.06 -3258.76,-1157.08 -1727.38,84.03 -1556.31,-792.83 -370.88,295.7 -841.27,181.32 -1592.09,-433.8 1417.2,1212.16 -252.48,803.28 912.44,722.87 2456.88,1853.42 385.16,764.89 -271.98,393 1482.93,988.62 1913.92,1286.74l0.19 0zm2488.04 1430.27c3024.77,974.15 -1484.14,-1192.26 0,0zm12737.5 7715.99c39.4,-600.65 -412.9,512.6 0,0zm1309.25 550.8c697.95,-675.43 28.95,1077.88 1156.68,-165.44 11.66,-890.12 -34.17,-1415.59 -1295.98,-334.1 -348.57,193.38 -503.36,1012.14 139.31,499.74l-0.01 -0.2zm-20781.96 -13051.1c-214.49,-842.68 -1502.63,-839.06 0,0zm1397.1 915.85c-519.24,-860.77 -1852.21,-779.36 0,0zm7954 4796.57c777.15,690.31 3566.32,506.17 942.79,85.64 -387.97,-574.52 -2466.13,-436.42 -942.79,-85.64zm10932.53 6752.9c1194.87,-1003.1 -1157.88,446.87 0,0zm2485.83 1707.27c7.64,-322.04 -515.22,140.71 0,0zm4.02 -450.89c1323.52,-1401.12 -1281.71,82.82 0,0zm-26212.35 -16600.73c-1127.73,-1608.97 -700.56,-2332.05 -1788.89,-3646.53 -206.65,-1005.51 -1866.48,-3284.89 -858.36,-870.22 922.69,1413.18 1196.08,3600.29 2647.45,4516.75l-0.2 0zm25796.84 16155.07c2435.98,-1573.59 -998.87,-684.88 0,0zm1858.85 728.1c1219.8,-1046.52 -771.72,-218.31 0,0zm-24631.13 -15783.18c348.57,-519.24 -901.58,-66.94 0,0zm24243.15 15286.25c1180.4,-760.87 -271.98,-644.07 -214.09,69.55l214.09 -69.55zm-16020.98 -10097.89c-40.61,-515.22 -624.17,43.42 0,0zm989.83 569.29c-315.4,-636.23 -483.66,99.91 0,0zm16925.38 10042.82c1512.89,-1091.34 -916.05,-209.26 -316.81,207.66l316.81 -207.66zm-579.55 -280.03c1232.86,-1032.04 -1300.21,457.32 0,0zm2959.84 1970.21c827.2,-553.41 -1005.31,-178.71 0,0zm-27759.01 -17865.15c1108.03,248.26 4430.91,2730.07 2471.16,172.28 -1004.1,-297.11 -402.04,-2751.38 -1426.05,-2317.57 687.49,1148.84 564.87,1636.31 -878.46,913.64 -1812.41,-886.1 -1018.58,437.82 -663.37,803.28 -484.06,110.36 638.64,419.33 496.52,428.18l0.2 0.19zm-5051.67 -3989.27c198.41,-821.78 -1828.49,-4516.75 -956.86,-1852.21 314,558.64 281.43,1616.61 956.86,1852.21zm9272.3 5716.44c-571.7,-477.02 -27.54,-68.35 0,0zm1405.14 327.67c0,-870.42 -1553.49,-353.8 0,0zm12185.5 7680.41c-232.58,-594.42 -918.67,-13.27 0,0zm584.97 426.97c-87.04,-332.49 -338.12,64.53 0,0zm4829.34 3043.06c464.16,-342.94 -579.75,-44.43 0,0zm-25754.63 -16550.48c1328.75,-514.21 -1423.83,-366.86 0,0zm19267.48 12137.66c-15.48,-859.57 -847.71,214.49 0,0zm-19792.14 -13361.68c853.13,-287.46 -790.01,-188.96 0,0zm2476.58 1200.1c-14.67,-282.43 -261.53,107.95 0,0zm30213.49 18527.72c1097.58,-222.13 3599.09,558.84 4002.54,-290.27 -1332.77,-32.97 -4609.82,-941.38 -4765.01,215.29l291.88 46.23 470.79 28.75 -0.2 0zm-29426.29 -18329.11c20.1,-871.63 -679.45,-32.77 0,0zm-6511.47 -4517.96c-295.7,-1660.44 -1125.32,-251.28 0,0zm1552.29 390.39c19.9,-533.71 -1421.22,-479.84 0,0zm887.31 436.41c-256.3,-207.86 -199.82,261.33 0,0zm5585.17 3582c263.14,-242.03 -622.97,-178.71 0,0zm-6175.37 -4565.19c-150.97,-1253.97 -1799.54,-187.95 0,0zm-3185.19 -2066.5c-44.83,-578.34 -310.38,218.11 0,0zm474.42 -357.21c-77.39,-686.49 -407.47,86.44 0,0zm2616.29 1561.33c1106.82,-433.8 -2015.44,-899.17 -226.15,-81.41l226.15 81.41zm35023.11 21633.89c708.4,-649.3 -899.17,-201.02 0,0zm4231.3 2192.54c284.04,-838.46 -715.23,110.56 0,0zm-38987.05 -25197.4c117.2,-812.13 -877.86,161.62 0,0zm-3723.52 -2494.67c-199.82,-1146.22 -172.28,-3158.85 1740.44,-2479.2 -2552.97,507.38 1767.98,3174.13 1222.41,1068.43 1073.86,52.87 2100.67,-634.62 1536.61,407.47 2116.35,-232.58 3582.2,-2067.5 5625.98,-1809.79 1591.69,-211.47 3332.13,-370.68 5047.65,-1012.14 1410.37,-101.31 2768.06,-1619.63 1995.54,-2520 -1923.17,-162.83 -3937.2,77.59 -6062.6,500.95 -2355.37,488.88 -4495.24,1419.41 -6872.1,1819.24 -2317.57,311.58 465.36,856.95 -198.61,979.17 -1208.14,419.33 1442.13,701.97 -156.39,1144.82 -987.01,-187.75 -2015.04,-526.88 -1593.09,-1567.97 -2218.89,289.06 -4169.6,1209.14 -2415.89,3467.41l130.26 1.21 -0.2 0.4zm5348.77 -2723.84c519.24,-1916.34 2786.56,1577.62 851.73,255.1 -230.17,-173.68 -611.51,-314.4 -851.73,-255.1zm100.92 -929.52c750.81,-558.44 398.42,314.4 0,0zm953.04 16.08c68.75,-882.08 2183.69,466.57 348.57,316.81l-348.57 -317.01 0 0.2zm1304.02 -524.47c477.22,-557.63 138.3,494.11 0,0zm334.1 -223.33c793.83,-953.04 4491.42,-608.89 1784.87,-93.68 -725.69,-546.78 -1281.51,322.04 -1784.87,93.68zm4826.52 -744.18c-119.41,-2604.23 2398.99,924.1 0,0zm1369.96 -8.04c500.54,-1311.66 1943.88,-526.88 232.58,-264.14 36.59,140.71 -51.26,678.45 -232.58,264.14zm-11053.55 6958.94c1495.6,-916.26 -1588.07,-795.04 0,0zm1106.63 306.36c524.67,-557.23 -1141,-226.15 0,0zm-3259.77 -2312.15c854.34,-657.34 -1012.14,-249.67 0,0zm44177.22 27637c24.93,-762.47 -653.32,342.94 0,0zm-4489 -3064.17c127.45,-876.45 -576.93,76.39 0,0zm5723.28 3360.07c1195.07,4.02 3621.2,-372.29 1021.19,-370.88 -408.68,63.32 -2377.68,50.26 -1021.19,370.88zm-41178.79 -26158.68c967.52,-65.73 1512.89,-1066.22 -188.16,-1009.53 -2635.39,-271.98 2325.21,903.19 -337.72,566.68 -357.42,236.6 504.56,508.58 525.87,442.85l0.01 0zm851.73 431.39c-101.31,-620.55 -299.92,329.67 0,0zm1010.73 -2694.89c419.33,-520.65 -580.95,-139.31 0,0zm-3217.95 -5377.32c1727.38,-586.18 4088.17,-1246.13 4903.31,289.47 -829.61,-997.67 -335.1,-1981.07 448.28,-520.65 1108.03,1476.3 1662.45,-671.61 942.19,-1167.33 821.78,1019.98 1754.92,1502.63 549.39,64.73 1310.66,-1576.21 -2622.32,206.25 -3516.06,187.75 -429.78,192.98 -4440.36,1022.6 -3326.9,1146.02l-0.21 0.01zm1012.15 -1937.25c984.8,-742.57 3405.9,442.85 1852.21,-738.95 -152.37,-133.88 -3401.68,896.56 -1852.21,738.95zm3590.03 148.36c1151.45,28.95 -496.72,-1548.47 875.45,-833.43 -224.74,-735.94 -1598.32,-874.04 -2269.93,-1168.34 -379.93,673.02 772.52,2011.02 1394.48,2001.77zm-2960.44 -3258.76c398.42,-540.14 -699.15,274.8 0,0zm1467.46 350.78c1857.03,-245.65 -473.61,-799.06 -375.11,-19.5l374.9 19.5 0.21 0zm-2739.92 -2142.48c-1308.05,-1707.48 2459.5,286.66 1130.34,-1501.23 -1118.48,-889.72 -2192.34,1003.1 -1130.34,1501.23zm16779.24 9037.3c599.85,-1062.4 -2474.97,-1432.88 -403.45,-376.31 190.57,63.32 147.55,449.68 403.45,376.31z"/>
 </g>
</svg>
