<?xml version="1.0" encoding="UTF-8"?>
<!DOCTYPE svg PUBLIC "-//W3C//DTD SVG 1.1//EN" "http://www.w3.org/Graphics/SVG/1.1/DTD/svg11.dtd">
<!-- Creator: CorelDRAW 2018 (64-Bit) -->
<svg xmlns="http://www.w3.org/2000/svg" xml:space="preserve" width="80.0644mm" height="129.993mm" version="1.1" style="shape-rendering:geometricPrecision; text-rendering:geometricPrecision; image-rendering:optimizeQuality; fill-rule:evenodd; clip-rule:evenodd"
viewBox="0 0 8008.52 13002.65"
 xmlns:xlink="http://www.w3.org/1999/xlink">
 <defs>
  <style type="text/css">
   <![CDATA[
    .fil0 {fill:#F6BF13}
   ]]>
  </style>
 </defs>
 <g id="Слой_x0020_1">
  <metadata id="CorelCorpID_0Corel-Layer"/>
  <path class="fil0" d="M6312.57 7201.42c-506.13,0 -960.19,224.43 -1271.05,577.47l-796.69 -563.93c84.35,-232.76 133.3,-482.7 133.3,-744.61 0,-257.23 -46.86,-503.01 -128.61,-732.12l794.61 -557.68c310.86,351.48 763.36,574.34 1268.45,574.34 934.67,0 1694.91,-760.24 1694.91,-1694.91 0,-934.67 -760.24,-1694.91 -1694.91,-1694.91 -934.67,0 -1694.91,760.24 -1694.91,1694.91 0,167.14 25.52,328.57 70.82,481.66l-795.13 558.21c-332.22,-412.41 -810.75,-699.83 -1355.41,-787.83l-0.01 -958.63c768.05,-161.42 1346.56,-843.55 1346.56,-1658.46 0,-934.67 -760.24,-1694.91 -1694.91,-1694.91 -934.67,0 -1694.91,760.24 -1694.91,1694.91 0,803.98 563.41,1477.77 1315.83,1650.65l0 971.12c-1026.84,180.17 -1810.51,1076.31 -1810.51,2154.18 0,1083.08 790.96,1982.34 1825.61,2156.78l0 1025.28c-760.24,167.14 -1330.94,845.11 -1330.94,1654.82 0,934.67 760.24,1694.91 1694.91,1694.91 934.67,0 1694.91,-760.24 1694.91,-1694.91 0,-809.7 -571.22,-1487.67 -1330.94,-1654.82l0 -1025.28c523.32,-88 997.16,-363.45 1332.5,-774.82l801.9 567.58c-44.26,151.53 -69.26,311.38 -69.26,476.97 0,934.67 760.24,1694.91 1694.91,1694.91 934.67,0 1694.91,-760.24 1694.91,-1694.91 0,-934.67 -761.28,-1695.95 -1695.95,-1695.95l0 0zm0 -3963.13c453.02,0 821.68,368.67 821.68,821.68 0,453.02 -368.67,821.68 -821.68,821.68 -453.02,0 -821.68,-368.67 -821.68,-821.68 0,-453.02 368.15,-821.68 821.68,-821.68l0 0zm-4946.22 -1543.9c0,-453.02 368.67,-821.68 821.68,-821.68 453.02,0 821.68,368.67 821.68,821.68 0,453.02 -368.67,821.68 -821.68,821.68 -453.03,0.51 -821.68,-368.15 -821.68,-821.68l0 0zm1643.88 9612.83c0,453.02 -368.67,821.68 -821.68,821.68 -453.02,0 -821.68,-368.67 -821.68,-821.68 0,-453.02 368.67,-821.68 821.68,-821.68 453.03,0 821.68,368.67 821.68,821.68zm-821.67 -3690.27c-632.14,0 -1146.09,-513.94 -1146.09,-1146.09 0,-632.14 514.46,-1146.09 1146.09,-1146.09 632.14,0 1146.09,514.46 1146.09,1146.09 -0.01,631.62 -514.47,1146.09 -1146.09,1146.09zm4124.02 2101.59c-453.02,0 -821.68,-368.67 -821.68,-821.68 0,-453.02 368.67,-821.68 821.68,-821.68 453.02,0 821.68,368.67 821.68,821.68 0,453.02 -368.67,821.68 -821.68,821.68z"/>
 </g>
</svg>
