<?xml version="1.0" encoding="UTF-8"?>
<!DOCTYPE svg PUBLIC "-//W3C//DTD SVG 1.1//EN" "http://www.w3.org/Graphics/SVG/1.1/DTD/svg11.dtd">
<!-- Creator: CorelDRAW 2018 (64-Bit) -->
<svg xmlns="http://www.w3.org/2000/svg" xml:space="preserve" width="82.2131mm" height="183.599mm" version="1.1" style="shape-rendering:geometricPrecision; text-rendering:geometricPrecision; image-rendering:optimizeQuality; fill-rule:evenodd; clip-rule:evenodd"
viewBox="0 0 1021.83 2281.96"
 xmlns:xlink="http://www.w3.org/1999/xlink">
 <defs>
  <style type="text/css">
   <![CDATA[
    .fil2 {fill:#499D4A}
    .fil3 {fill:#58AA50}
    .fil1 {fill:#A6A385}
    .fil0 {fill:white}
   ]]>
  </style>
 </defs>
 <g id="Слой_x0020_1">
  <metadata id="CorelCorpID_0Corel-Layer"/>
  <g id="_2572029235728">
   <path class="fil0" d="M562.86 2281.96l-60.74 -20.76c0,0 7.42,-309.68 -103.73,-331.9 -74.07,-85.95 11.88,-3645.2 278.59,-11.87 0,0 -91.88,45.92 -108.18,124.48 -17.79,77.06 -5.94,240.06 -5.94,240.06l-0 -0z"/>
   <path class="fil1" d="M562.86 2281.96l-60.74 -20.76c0,0 7.42,-309.68 -103.73,-331.9 -74.07,-85.95 11.88,-3645.2 278.59,-11.87 0,0 -91.88,45.92 -108.18,124.48 -17.79,77.06 -5.94,240.06 -5.94,240.06l-0 -0z"/>
   <g>
    <path class="fil0" d="M595.47 1982.64c0,0 531.98,-349.71 407.48,-1077.28 -120.01,-528.97 -403.04,-702.34 -434.16,-769.03 -34.07,-47.42 -66.69,-130.38 -66.69,-130.38l22.24 1471.39c0,1.49 -45.94,450.47 71.13,505.32l-0.02 -0.02zm0 0l0 0 0 0z"/>
   </g>
   <g>
    <path class="fil2" d="M595.47 1982.64c0,0 531.98,-349.71 407.48,-1077.28 -120.01,-528.97 -403.04,-702.34 -434.16,-769.03 -34.07,-47.42 -66.69,-130.38 -66.69,-130.38l22.24 1471.39c0,1.49 -45.94,450.47 71.13,505.32l-0.02 -0.02zm0 0l0 0 0 0z"/>
   </g>
   <path class="fil0" d="M471.01 2001.89c0,0 -499.38,-340.81 -469.74,-940.92 28.15,-600.12 380.81,-895 448.98,-948.34 44.46,-47.42 45.94,-65.21 48.91,-112.63 31.12,66.69 25.19,997.25 29.63,1106.89 13.33,422.31 -23.7,815 -57.77,895l0 0z"/>
   <path class="fil3" d="M471.01 2001.89c0,0 -499.38,-340.81 -469.74,-940.92 28.15,-600.12 380.81,-895 448.98,-948.34 44.46,-47.42 45.94,-65.21 48.91,-112.63 31.12,66.69 25.19,997.25 29.63,1106.89 13.33,422.31 -23.7,815 -57.77,895l0 0z"/>
  </g>
 </g>
</svg>
