<?xml version="1.0" encoding="UTF-8"?>
<!DOCTYPE svg PUBLIC "-//W3C//DTD SVG 1.1//EN" "http://www.w3.org/Graphics/SVG/1.1/DTD/svg11.dtd">
<!-- Creator: CorelDRAW 2018 (64-Bit) -->
<svg xmlns="http://www.w3.org/2000/svg" xml:space="preserve" width="61.075mm" height="69.3876mm" version="1.1" style="shape-rendering:geometricPrecision; text-rendering:geometricPrecision; image-rendering:optimizeQuality; fill-rule:evenodd; clip-rule:evenodd"
viewBox="0 0 2129.81 2419.69"
 xmlns:xlink="http://www.w3.org/1999/xlink">
 <defs>
  <style type="text/css">
   <![CDATA[
    .fil0 {fill:#009639}
    .fil1 {fill:white}
   ]]>
  </style>
 </defs>
 <g id="Слой_x0020_1">
  <metadata id="CorelCorpID_0Corel-Layer"/>
  <path class="fil0" d="M17.09 1815.23c10.98,19.53 26.85,34.17 46.38,45.16l939.8 541.91 0 0c39.06,23.19 86.66,23.19 124.49,0l939.8 -541.91c39.06,-21.97 62.25,-63.47 62.25,-108.63l0 -1083.82 0 0c0,-45.16 -23.19,-86.66 -62.25,-108.63l-939.8 -541.91 0 0c-39.06,-23.19 -86.66,-23.19 -124.49,0l0 0 -939.8 541.91c-40.28,21.97 -63.47,63.47 -63.47,108.63l0 0 0 1085.05c0,21.97 4.88,42.72 17.09,62.25z"/>
  <path class="fil1" d="M764.05 1623.6c0,67.13 -53.7,120.83 -120.83,120.83 -67.13,0 -120.83,-53.7 -120.83,-120.83l0 0 0 -828.74c0,-64.69 57.36,-117.17 136.7,-117.17 57.36,0 124.49,23.19 164.77,73.23l36.62 43.94 505.3 604.16 0 -601.72 0 0c0,-67.13 53.7,-120.83 120.83,-120.83 67.13,0 120.83,53.7 120.83,120.83l0 0 0 828.74c0,64.69 -57.36,117.17 -136.7,117.17 -57.36,0 -124.49,-23.19 -164.77,-73.23l-541.91 -646.88 0 600.5 0 0z"/>
 </g>
</svg>
