<?xml version="1.0" encoding="UTF-8"?>
<!DOCTYPE svg PUBLIC "-//W3C//DTD SVG 1.1//EN" "http://www.w3.org/Graphics/SVG/1.1/DTD/svg11.dtd">
<!-- Creator: CorelDRAW 2018 (64-Bit) -->
<svg xmlns="http://www.w3.org/2000/svg" xml:space="preserve" width="27.7885mm" height="27.782mm" version="1.1" style="shape-rendering:geometricPrecision; text-rendering:geometricPrecision; image-rendering:optimizeQuality; fill-rule:evenodd; clip-rule:evenodd"
viewBox="0 0 430.52 430.42"
 xmlns:xlink="http://www.w3.org/1999/xlink">
 <defs>
  <style type="text/css">
   <![CDATA[
    .fil0 {fill:#FF6600}
   ]]>
  </style>
 </defs>
 <g id="Слой_x0020_1">
  <metadata id="CorelCorpID_0Corel-Layer"/>
  <path class="fil0" d="M414.24 172.6l-138.08 0c-9.71,0 -17.26,-7.55 -17.26,-17.26 0,0 0,0 0,0l0 -138.08c0,-9.71 -7.55,-17.26 -17.26,-17.26 0,0 0,0 0,0l-51.78 0c-9.71,0 -17.26,7.55 -17.26,17.26 0,0 0,0 0,0l0 138.08c0,9.71 -7.55,17.26 -17.26,17.26 0,0 0,0 0,0l-51.78 -0c-9.71,0 -17.26,-7.55 -17.26,-17.26 0,0 0,0 0,0l0 -138.08c0,-9.71 -7.55,-17.26 -17.26,-17.26 0,0 0,0 0,0l-51.78 0c-9.71,0 -17.26,7.55 -17.26,17.26 0,0 0,0 0,0l0 395.9c0,9.71 7.55,17.26 17.26,17.26 0,0 0,0 0,0l395.9 -0c9.71,0 17.26,-7.55 17.26,-17.26 0,0 0,0 0,0l-0 -223.3c1.08,-9.71 -6.47,-17.26 -16.18,-17.26 0,0 0,0 0,0zm-69.04 145.63c0,14.02 -11.87,25.89 -25.89,25.89 0,0 0,0 0,0l-34.52 0c-14.02,0 -25.89,-11.87 -25.89,-25.89 0,0 0,0 0,0l0 -34.52c0,-14.02 11.87,-25.89 25.89,-25.89 0,0 0,0 0,0l34.52 0c14.02,0 25.89,11.87 25.89,25.89 0,0 0,0 0,0l0 34.52z"/>
 </g>
</svg>
