<?xml version="1.0" encoding="utf-8"?>
<!-- Generator: Adobe Illustrator 25.0.1, SVG Export Plug-In . SVG Version: 6.00 Build 0)  -->
<svg version="1.0" id="katman_1" xmlns="http://www.w3.org/2000/svg" xmlns:xlink="http://www.w3.org/1999/xlink" x="0px" y="0px"
	 viewBox="0 0 600 400" style="enable-background:new 0 0 600 400;" xml:space="preserve">
<style type="text/css">
	.st0{fill:#999999;}
	.st1{fill:#009639;}
	.st2{fill:#FFFFFF;}
</style>
<path class="st0" d="M402.7,263.6h-4.3v-5.8h10v-2.6h-12.8v11h6.9c2.5,0,3.9,1.1,3.9,3.2v2.2c0,2.3-1.6,3.6-4.4,3.6
	c-2.7,0-4.3-1.3-4.3-3.6v-2.1h-2.8v2c0,3.8,2.8,6.2,7,6.2c4.3,0,7.1-2.5,7.1-6.2v-2.1C409.2,265.9,406.6,263.6,402.7,263.6"/>
<polygon class="st0" points="392.5,257.7 392.5,255.1 378.9,255.1 378.9,277.3 381.7,277.3 381.7,268.4 391.4,268.4 391.4,265.7 
	381.7,265.7 381.7,257.7 "/>
<path class="st0" d="M367.6,255.6h1.4v-2.5h-1.7c-3.6,0-5.7,2.2-5.7,6v2.3h-1.8v2.5h1.9v13.4h2.7v-13.4h4.4v-2.5h-4.4v-2.1
	C364.3,256.7,365.3,255.6,367.6,255.6"/>
<path class="st0" d="M332.7,274.8c-2.2,0-3.2-1-3.2-3.6v-7.3h4.3v-2.5h-4.3v-4.7h-2.7v4.7h-2.1v2.5h2.1v7.9c0,3.8,1.8,5.5,5.3,5.5h2
	v-2.5H332.7z"/>
<path class="st0" d="M321.7,261.1c-1.8-0.1-3.6,0.6-4.9,1.9l-0.5-1.6h-1.9v15.9h2.7v-10c0-2.6,1.9-3.8,4.2-3.8
	c0.5,0,0.9,0.1,1.4,0.2v-2.5C322.3,261.1,322,261.1,321.7,261.1"/>
<polygon class="st1" points="527.5,166.1 514.5,166.1 500.1,188.8 486.1,166.1 472.6,166.1 492.7,199 472.4,233 485.2,233 
	499.5,210 513.5,233 527,233 506.7,199.8 "/>
<polygon class="st1" points="455.7,166.1 455.7,211.6 429.4,166.1 418.6,166.1 418.6,233 429.4,233 429.4,187.7 455.7,233 
	466.7,233 466.7,166.1 "/>
<rect x="398" y="166.1" class="st1" width="11.6" height="66.9"/>
<path class="st1" d="M389,189.9v-3.8c0-13-9.5-21.4-26.3-21.4c-16.6,0-26.2,8.4-26.2,21.4V213c0,13,9.6,21.4,26.3,21.4
	S389,226,389,213v-15.7h-26.7V208h15v4.3c0,7-5.3,11.3-14.7,11.3c-9.3,0-14.6-4.3-14.6-11.3v-25.5c0-7,5.3-11.3,14.7-11.3
	c9.3,0,14.6,4.3,14.6,11.3v3.1H389z"/>
<polygon class="st1" points="316.6,166.1 316.6,211.6 290.3,166.1 279.4,166.1 279.4,233 290.3,233 290.3,187.7 316.6,233 
	327.5,233 327.5,166.1 "/>
<path class="st0" d="M350.7,261c-4.4,0-6.8,2.5-6.8,6.6v3.5c0,4.1,2.3,6.6,6.8,6.6c4.4,0,6.8-2.5,6.8-6.6v-3.5
	C357.5,263.5,355.2,261,350.7,261z M354.9,271c0,2.8-1.3,4.2-4.1,4.2c-2.9,0-4.1-1.4-4.1-4.2v-3.2c0-2.8,1.3-4.2,4.1-4.2
	c2.9,0,4.1,1.4,4.1,4.2V271z"/>
<path class="st0" d="M308.9,261.4l-0.5,1.6c-1.3-1.4-3.1-2.1-5-2c-3.9,0-6.2,1.9-6.2,6.7v3.3c0,4.7,2.3,6.7,6.2,6.7
	c1.9,0.1,3.7-0.6,5-2l0.5,1.6h1.9v-15.9H308.9z M303.9,275.2c-2.7,0-4-1.3-4-4.3v-3c0-3,1.3-4.3,4-4.3c2.5,0,4,1.2,4.2,3.8v4
	C307.9,274,306.3,275.2,303.9,275.2"/>
<path class="st0" d="M288.1,255.1h-8.7v22.2h2.8v-8.1h5.9c4.3,0,6.8-2.2,6.8-5.9V261C294.9,257.3,292.4,255.1,288.1,255.1
	 M292.2,263.4c0,2.1-1.3,3.2-3.9,3.2h-6.1v-8.9h6.1c2.6,0,3.9,1.1,3.9,3.2V263.4z"/>
<path class="st1" d="M51.2,249.7c0.9,1.6,2.2,2.8,3.8,3.7l77,44.4l0,0c3.2,1.9,7.1,1.9,10.2,0l77-44.4c3.2-1.8,5.1-5.2,5.1-8.9
	v-88.8l0,0c0-3.7-1.9-7.1-5.1-8.9l-77-44.4l0,0c-3.2-1.9-7.1-1.9-10.2,0l0,0l-77,44.4c-3.3,1.8-5.2,5.2-5.2,8.9l0,0v88.9
	C49.8,246.4,50.2,248.1,51.2,249.7"/>
<path class="st2" d="M112.4,234c0,5.5-4.4,9.9-9.9,9.9s-9.9-4.4-9.9-9.9l0,0v-67.9c0-5.3,4.7-9.6,11.2-9.6c4.7,0,10.2,1.9,13.5,6
	l3,3.6l41.4,49.5v-49.3l0,0c0-5.5,4.4-9.9,9.9-9.9s9.9,4.4,9.9,9.9l0,0v67.9c0,5.3-4.7,9.6-11.2,9.6c-4.7,0-10.2-1.9-13.5-6
	l-44.4-53V234L112.4,234z"/>
<path class="st0" d="M541.2,230h1.3v-2.8h1c0.5,0,1,0,1.4,0.2c0.5,0.4,0.8,1,0.7,1.6v0.6v0.2v0.1c0,0,0,0,0,0.1h1.2v-0.1
	c0-0.1-0.1-0.2-0.1-0.4s0-0.4,0-0.5v-0.5c0-0.4-0.2-0.8-0.4-1.1c-0.3-0.4-0.8-0.6-1.2-0.7c0.4,0,0.7-0.2,1-0.3
	c0.5-0.3,0.7-0.9,0.7-1.4c0.1-0.8-0.4-1.5-1.1-1.8c-0.6-0.2-1.3-0.3-2-0.3h-2.5V230z M544.8,226.1c-0.4,0.1-0.8,0.2-1.2,0.2h-1.1
	v-2.6h1.1c0.5,0,1,0.1,1.5,0.3c0.3,0.2,0.5,0.6,0.5,1C545.5,225.5,545.2,226,544.8,226.1 M548.4,221.8c-1.2-1.2-2.9-1.9-4.6-1.9
	c-3.6,0-6.5,2.9-6.5,6.6c0,3.6,2.9,6.5,6.5,6.5c3.6,0,6.6-2.9,6.6-6.5C550.3,224.7,549.7,223.1,548.4,221.8 M547.8,222.5
	c1.1,1,1.7,2.5,1.6,4c0,3.1-2.5,5.6-5.6,5.7c-1.5,0-3-0.6-4-1.7c-1.1-1.1-1.6-2.5-1.6-4c0-3.1,2.5-5.6,5.6-5.6
	C545.3,220.8,546.7,221.4,547.8,222.5"/>
</svg>
